<mxfile host="app.diagrams.net" modified="2021-11-24T08:01:35.670Z" agent="5.0 (Windows NT 10.0; Win64; x64) AppleWebKit/537.36 (KHTML, like Gecko) Chrome/96.0.4664.45 Safari/537.36" etag="trJ9OT38f0AnA7oDcO1s" version="15.8.4" type="github">
  <diagram id="SaViZYcIOSmqmd24xeMG" name="第 1 页">
    <mxGraphModel dx="2064" dy="744" grid="1" gridSize="10" guides="1" tooltips="1" connect="1" arrows="1" fold="1" page="1" pageScale="1" pageWidth="827" pageHeight="1169" math="0" shadow="0">
      <root>
        <mxCell id="0" />
        <mxCell id="1" parent="0" />
        <mxCell id="7gwzGEiESjAqNoWBXfss-9" value="" style="rounded=1;whiteSpace=wrap;html=1;fontSize=18;strokeWidth=2;" vertex="1" parent="1">
          <mxGeometry x="95" y="390" width="610" height="105" as="geometry" />
        </mxCell>
        <mxCell id="7gwzGEiESjAqNoWBXfss-15" value="未命名图层" parent="0" />
        <mxCell id="7gwzGEiESjAqNoWBXfss-42" value="" style="rounded=1;whiteSpace=wrap;html=1;strokeWidth=2;fillWeight=4;hachureGap=8;hachureAngle=45;fillColor=#e1d5e7;sketch=1;shadow=1;fontSize=20;strokeColor=#9673a6;" vertex="1" parent="7gwzGEiESjAqNoWBXfss-15">
          <mxGeometry x="460" y="760" width="380" height="560" as="geometry" />
        </mxCell>
        <mxCell id="7gwzGEiESjAqNoWBXfss-16" style="edgeStyle=orthogonalEdgeStyle;curved=1;rounded=0;orthogonalLoop=1;jettySize=auto;html=1;fontSize=18;startArrow=open;startFill=0;endArrow=open;endFill=0;endSize=4;strokeColor=#000000;strokeWidth=3;exitX=0.405;exitY=-0.006;exitDx=0;exitDy=0;exitPerimeter=0;" edge="1" parent="7gwzGEiESjAqNoWBXfss-15" source="7gwzGEiESjAqNoWBXfss-17" target="7gwzGEiESjAqNoWBXfss-22">
          <mxGeometry relative="1" as="geometry" />
        </mxCell>
        <mxCell id="7gwzGEiESjAqNoWBXfss-27" style="edgeStyle=orthogonalEdgeStyle;curved=1;rounded=0;orthogonalLoop=1;jettySize=auto;html=1;exitX=0;exitY=0.5;exitDx=0;exitDy=0;fontSize=18;startArrow=open;startFill=0;endArrow=open;endFill=0;endSize=4;strokeColor=#000000;strokeWidth=3;" edge="1" parent="7gwzGEiESjAqNoWBXfss-15" source="7gwzGEiESjAqNoWBXfss-24" target="7gwzGEiESjAqNoWBXfss-26">
          <mxGeometry relative="1" as="geometry" />
        </mxCell>
        <mxCell id="7gwzGEiESjAqNoWBXfss-17" value="" style="rounded=1;whiteSpace=wrap;html=1;fontSize=18;strokeWidth=2;shadow=1;" vertex="1" parent="7gwzGEiESjAqNoWBXfss-15">
          <mxGeometry x="95" y="390" width="755" height="105" as="geometry" />
        </mxCell>
        <mxCell id="7gwzGEiESjAqNoWBXfss-18" style="rounded=0;orthogonalLoop=1;jettySize=auto;html=1;fontSize=18;edgeStyle=orthogonalEdgeStyle;curved=1;fillColor=#dae8fc;strokeColor=#000000;strokeWidth=3;endSize=4;startArrow=open;startFill=0;endArrow=open;endFill=0;" edge="1" parent="7gwzGEiESjAqNoWBXfss-15" source="7gwzGEiESjAqNoWBXfss-19" target="7gwzGEiESjAqNoWBXfss-21">
          <mxGeometry relative="1" as="geometry" />
        </mxCell>
        <mxCell id="7gwzGEiESjAqNoWBXfss-19" value="系统的位数（eg:32位）" style="rounded=1;whiteSpace=wrap;html=1;strokeWidth=2;fillWeight=4;hachureGap=8;hachureAngle=45;sketch=1;fillColor=#f8cecc;strokeColor=#b85450;fontSize=18;" vertex="1" parent="7gwzGEiESjAqNoWBXfss-15">
          <mxGeometry x="340" y="70" width="120" height="60" as="geometry" />
        </mxCell>
        <mxCell id="7gwzGEiESjAqNoWBXfss-20" style="edgeStyle=orthogonalEdgeStyle;curved=1;rounded=0;orthogonalLoop=1;jettySize=auto;html=1;fontSize=18;startArrow=open;startFill=0;endArrow=open;endFill=0;endSize=4;strokeWidth=3;" edge="1" parent="7gwzGEiESjAqNoWBXfss-15" source="7gwzGEiESjAqNoWBXfss-21" target="7gwzGEiESjAqNoWBXfss-22">
          <mxGeometry relative="1" as="geometry" />
        </mxCell>
        <mxCell id="7gwzGEiESjAqNoWBXfss-21" value="虚拟地址空间的大小" style="rounded=1;whiteSpace=wrap;html=1;strokeWidth=2;fillWeight=4;hachureGap=8;hachureAngle=45;sketch=1;fillColor=#f8cecc;strokeColor=#b85450;fontSize=18;" vertex="1" parent="7gwzGEiESjAqNoWBXfss-15">
          <mxGeometry x="310" y="170" width="180" height="60" as="geometry" />
        </mxCell>
        <mxCell id="7gwzGEiESjAqNoWBXfss-22" value="虚拟地址空间总位数" style="rounded=1;whiteSpace=wrap;html=1;strokeWidth=2;fillWeight=4;hachureGap=8;hachureAngle=45;sketch=1;fillColor=#f8cecc;strokeColor=#b85450;fontSize=18;" vertex="1" parent="7gwzGEiESjAqNoWBXfss-15">
          <mxGeometry x="310" y="270" width="180" height="60" as="geometry" />
        </mxCell>
        <mxCell id="7gwzGEiESjAqNoWBXfss-23" value="页内偏移/页内地址/页内位移" style="rounded=1;whiteSpace=wrap;html=1;strokeWidth=2;fillWeight=4;hachureGap=8;hachureAngle=45;sketch=1;fillColor=#f5f5f5;strokeColor=#666666;fontColor=#333333;fontSize=18;" vertex="1" parent="7gwzGEiESjAqNoWBXfss-15">
          <mxGeometry x="530" y="412.5" width="290" height="60" as="geometry" />
        </mxCell>
        <mxCell id="7gwzGEiESjAqNoWBXfss-31" style="edgeStyle=orthogonalEdgeStyle;curved=1;rounded=0;orthogonalLoop=1;jettySize=auto;html=1;entryX=0.5;entryY=0;entryDx=0;entryDy=0;fontSize=18;startArrow=none;startFill=0;endArrow=open;endFill=0;endSize=4;strokeColor=#000000;strokeWidth=3;" edge="1" parent="7gwzGEiESjAqNoWBXfss-15" source="7gwzGEiESjAqNoWBXfss-24" target="7gwzGEiESjAqNoWBXfss-28">
          <mxGeometry relative="1" as="geometry" />
        </mxCell>
        <mxCell id="7gwzGEiESjAqNoWBXfss-32" style="edgeStyle=orthogonalEdgeStyle;curved=1;rounded=0;orthogonalLoop=1;jettySize=auto;html=1;exitX=0.5;exitY=1;exitDx=0;exitDy=0;fontSize=18;startArrow=none;startFill=0;endArrow=open;endFill=0;endSize=4;strokeColor=#000000;strokeWidth=3;" edge="1" parent="7gwzGEiESjAqNoWBXfss-15" source="7gwzGEiESjAqNoWBXfss-24" target="7gwzGEiESjAqNoWBXfss-30">
          <mxGeometry relative="1" as="geometry" />
        </mxCell>
        <mxCell id="7gwzGEiESjAqNoWBXfss-24" value="页目录号&lt;br&gt;（一级页号）" style="rounded=1;whiteSpace=wrap;html=1;strokeWidth=2;fillWeight=4;hachureGap=8;hachureAngle=45;sketch=1;fillColor=#ffe6cc;strokeColor=#d79b00;fontSize=18;" vertex="1" parent="7gwzGEiESjAqNoWBXfss-15">
          <mxGeometry x="140" y="412.5" width="120" height="60" as="geometry" />
        </mxCell>
        <mxCell id="7gwzGEiESjAqNoWBXfss-25" value="页号/页表索引&lt;br&gt;（二级页号）" style="rounded=1;whiteSpace=wrap;html=1;strokeWidth=2;fillWeight=4;hachureGap=8;hachureAngle=45;sketch=1;fillColor=#f5f5f5;strokeColor=#666666;fontColor=#333333;fontSize=18;" vertex="1" parent="7gwzGEiESjAqNoWBXfss-15">
          <mxGeometry x="330" y="412.5" width="140" height="60" as="geometry" />
        </mxCell>
        <mxCell id="7gwzGEiESjAqNoWBXfss-26" value="虚页号/逻辑页号&lt;br&gt;（一级页表情况下：逻辑页号=一级页号）&lt;br&gt;（二级页表情况下：逻辑页号=一级页号+二级页号）" style="rounded=1;whiteSpace=wrap;html=1;strokeWidth=2;fillWeight=4;hachureGap=8;hachureAngle=45;sketch=1;fillColor=#f5f5f5;strokeColor=#666666;fontColor=#333333;fontSize=18;" vertex="1" parent="7gwzGEiESjAqNoWBXfss-15">
          <mxGeometry x="-390" y="390" width="450" height="102.5" as="geometry" />
        </mxCell>
        <mxCell id="7gwzGEiESjAqNoWBXfss-33" style="edgeStyle=orthogonalEdgeStyle;curved=1;rounded=0;orthogonalLoop=1;jettySize=auto;html=1;exitX=0.75;exitY=1;exitDx=0;exitDy=0;entryX=0.5;entryY=0;entryDx=0;entryDy=0;fontSize=18;startArrow=none;startFill=0;endArrow=open;endFill=0;endSize=4;strokeColor=#000000;strokeWidth=3;" edge="1" parent="7gwzGEiESjAqNoWBXfss-15" source="7gwzGEiESjAqNoWBXfss-28" target="7gwzGEiESjAqNoWBXfss-29">
          <mxGeometry relative="1" as="geometry" />
        </mxCell>
        <mxCell id="7gwzGEiESjAqNoWBXfss-28" value="页目录表起始地址&lt;br&gt;（进程运行的时候：起始地址存放在某基址寄存器&lt;br&gt;进程下CPU时：是存放在PCB中的。）" style="rounded=1;whiteSpace=wrap;html=1;strokeWidth=2;fillWeight=4;hachureGap=8;hachureAngle=45;sketch=1;fillColor=#ffe6cc;strokeColor=#d79b00;fontSize=18;" vertex="1" parent="7gwzGEiESjAqNoWBXfss-15">
          <mxGeometry x="-220" y="640" width="430" height="80" as="geometry" />
        </mxCell>
        <mxCell id="7gwzGEiESjAqNoWBXfss-36" style="edgeStyle=orthogonalEdgeStyle;curved=1;rounded=0;orthogonalLoop=1;jettySize=auto;html=1;exitX=0.5;exitY=1;exitDx=0;exitDy=0;fontSize=18;startArrow=none;startFill=0;endArrow=open;endFill=0;endSize=4;strokeColor=#000000;strokeWidth=3;" edge="1" parent="7gwzGEiESjAqNoWBXfss-15" source="7gwzGEiESjAqNoWBXfss-29" target="7gwzGEiESjAqNoWBXfss-35">
          <mxGeometry relative="1" as="geometry" />
        </mxCell>
        <mxCell id="7gwzGEiESjAqNoWBXfss-29" value="页目录项的物理地址" style="rounded=1;whiteSpace=wrap;html=1;strokeWidth=2;fillWeight=4;hachureGap=8;hachureAngle=45;sketch=1;fillColor=#f5f5f5;strokeColor=#666666;fontColor=#333333;fontSize=18;" vertex="1" parent="7gwzGEiESjAqNoWBXfss-15">
          <mxGeometry x="50" y="800" width="220" height="60" as="geometry" />
        </mxCell>
        <mxCell id="7gwzGEiESjAqNoWBXfss-34" style="edgeStyle=orthogonalEdgeStyle;curved=1;rounded=0;orthogonalLoop=1;jettySize=auto;html=1;exitX=0.25;exitY=1;exitDx=0;exitDy=0;fontSize=18;startArrow=none;startFill=0;endArrow=open;endFill=0;endSize=4;strokeColor=#000000;strokeWidth=3;" edge="1" parent="7gwzGEiESjAqNoWBXfss-15" source="7gwzGEiESjAqNoWBXfss-30">
          <mxGeometry relative="1" as="geometry">
            <mxPoint x="160" y="800" as="targetPoint" />
          </mxGeometry>
        </mxCell>
        <mxCell id="7gwzGEiESjAqNoWBXfss-30" value="单个页目录项的长度" style="rounded=1;whiteSpace=wrap;html=1;strokeWidth=2;fillWeight=4;hachureGap=8;hachureAngle=45;sketch=1;fillColor=#ffe6cc;strokeColor=#d79b00;fontSize=18;" vertex="1" parent="7gwzGEiESjAqNoWBXfss-15">
          <mxGeometry x="290" y="640" width="220" height="60" as="geometry" />
        </mxCell>
        <mxCell id="7gwzGEiESjAqNoWBXfss-45" style="edgeStyle=orthogonalEdgeStyle;curved=1;rounded=0;orthogonalLoop=1;jettySize=auto;html=1;exitX=1;exitY=0.5;exitDx=0;exitDy=0;entryX=0;entryY=0;entryDx=0;entryDy=0;fontSize=20;startArrow=none;startFill=0;endArrow=open;endFill=0;endSize=4;strokeColor=#000000;strokeWidth=3;" edge="1" parent="7gwzGEiESjAqNoWBXfss-15" source="7gwzGEiESjAqNoWBXfss-35" target="7gwzGEiESjAqNoWBXfss-42">
          <mxGeometry relative="1" as="geometry" />
        </mxCell>
        <mxCell id="7gwzGEiESjAqNoWBXfss-35" value="页目录项的具体内容" style="rounded=1;whiteSpace=wrap;html=1;strokeWidth=2;fillWeight=4;hachureGap=8;hachureAngle=45;sketch=1;fillColor=#f5f5f5;strokeColor=#666666;fontColor=#333333;fontSize=18;" vertex="1" parent="7gwzGEiESjAqNoWBXfss-15">
          <mxGeometry x="50" y="950" width="220" height="60" as="geometry" />
        </mxCell>
        <mxCell id="7gwzGEiESjAqNoWBXfss-37" value="通过物理地址找到具体内容" style="text;html=1;strokeColor=none;fillColor=none;align=center;verticalAlign=middle;whiteSpace=wrap;rounded=0;shadow=1;fontSize=20;" vertex="1" parent="7gwzGEiESjAqNoWBXfss-15">
          <mxGeometry x="-140" y="880" width="296" height="49" as="geometry" />
        </mxCell>
        <mxCell id="7gwzGEiESjAqNoWBXfss-39" value="页目录号&lt;br&gt;（隐含）" style="rounded=1;whiteSpace=wrap;html=1;strokeWidth=2;fillWeight=4;hachureGap=8;hachureAngle=45;sketch=1;fillColor=#f5f5f5;strokeColor=#666666;fontSize=18;fontColor=#333333;" vertex="1" parent="7gwzGEiESjAqNoWBXfss-15">
          <mxGeometry x="480" y="796" width="120" height="70" as="geometry" />
        </mxCell>
        <mxCell id="7gwzGEiESjAqNoWBXfss-47" style="edgeStyle=orthogonalEdgeStyle;curved=1;rounded=0;orthogonalLoop=1;jettySize=auto;html=1;entryX=0;entryY=0.5;entryDx=0;entryDy=0;fontSize=20;startArrow=none;startFill=0;endArrow=open;endFill=0;endSize=4;strokeColor=#000000;strokeWidth=3;" edge="1" parent="7gwzGEiESjAqNoWBXfss-15" source="7gwzGEiESjAqNoWBXfss-40" target="7gwzGEiESjAqNoWBXfss-46">
          <mxGeometry relative="1" as="geometry" />
        </mxCell>
        <mxCell id="7gwzGEiESjAqNoWBXfss-40" value="下一级页表的页框号&lt;br&gt;（物理块号/内存块号）" style="rounded=1;whiteSpace=wrap;html=1;strokeWidth=2;fillWeight=4;hachureGap=8;hachureAngle=45;sketch=1;fillColor=#f5f5f5;strokeColor=#666666;fontSize=18;fontColor=#333333;" vertex="1" parent="7gwzGEiESjAqNoWBXfss-15">
          <mxGeometry x="480" y="896" width="200" height="70" as="geometry" />
        </mxCell>
        <mxCell id="7gwzGEiESjAqNoWBXfss-41" value="有效位（下一级页表是否已调入内存）" style="rounded=1;whiteSpace=wrap;html=1;strokeWidth=2;fillWeight=4;hachureGap=8;hachureAngle=45;sketch=1;fillColor=#f5f5f5;strokeColor=#666666;fontSize=18;fontColor=#333333;" vertex="1" parent="7gwzGEiESjAqNoWBXfss-15">
          <mxGeometry x="480" y="1005" width="340" height="70" as="geometry" />
        </mxCell>
        <mxCell id="7gwzGEiESjAqNoWBXfss-43" value="修改位（内容是否发生修改）" style="rounded=1;whiteSpace=wrap;html=1;strokeWidth=2;fillWeight=4;hachureGap=8;hachureAngle=45;sketch=1;fillColor=#f5f5f5;strokeColor=#666666;fontSize=18;fontColor=#333333;" vertex="1" parent="7gwzGEiESjAqNoWBXfss-15">
          <mxGeometry x="480" y="1096" width="340" height="70" as="geometry" />
        </mxCell>
        <mxCell id="7gwzGEiESjAqNoWBXfss-44" value="访问位（最近是否访问过该页面）" style="rounded=1;whiteSpace=wrap;html=1;strokeWidth=2;fillWeight=4;hachureGap=8;hachureAngle=45;sketch=1;fillColor=#f5f5f5;strokeColor=#666666;fontSize=18;fontColor=#333333;" vertex="1" parent="7gwzGEiESjAqNoWBXfss-15">
          <mxGeometry x="480" y="1196" width="340" height="70" as="geometry" />
        </mxCell>
        <mxCell id="7gwzGEiESjAqNoWBXfss-46" value="页表起始物理地址" style="rounded=1;whiteSpace=wrap;html=1;strokeWidth=2;fillWeight=4;hachureGap=8;hachureAngle=45;sketch=1;fillColor=#f5f5f5;strokeColor=#666666;fontColor=#333333;fontSize=18;" vertex="1" parent="7gwzGEiESjAqNoWBXfss-15">
          <mxGeometry x="980" y="901" width="220" height="60" as="geometry" />
        </mxCell>
      </root>
    </mxGraphModel>
  </diagram>
</mxfile>
